<?xml version="1.0" encoding="UTF-8" standalone="no"?>
<svg width="157px" height="196px" viewBox="0 0 157 196" version="1.1" xmlns="http://www.w3.org/2000/svg" xmlns:xlink="http://www.w3.org/1999/xlink">
    <!-- Generator: Sketch 40.3 (33839) - http://www.bohemiancoding.com/sketch -->
    <title>logo-vertical copy 2</title>
    <desc>Created with Sketch.</desc>
    <defs>
        <linearGradient x1="255.364762%" y1="260.39012%" x2="-5.28857143%" y2="5.93136058%" id="linearGradient-1">
            <stop stop-color="#FFFFFF" offset="0%"></stop>
            <stop stop-color="#C2C1C1" offset="100%"></stop>
        </linearGradient>
        <linearGradient x1="209.668365%" y1="219.188025%" x2="-0.815670968%" y2="-7.03918533%" id="linearGradient-2">
            <stop stop-color="#FFFFFF" offset="0%"></stop>
            <stop stop-color="#A2A2A1" offset="100%"></stop>
        </linearGradient>
        <linearGradient x1="272.968405%" y1="332.329477%" x2="9.04163238%" y2="-12.3339959%" id="linearGradient-3">
            <stop stop-color="#FFFFFF" offset="0%"></stop>
            <stop stop-color="#B3B3B3" offset="100%"></stop>
        </linearGradient>
    </defs>
    <g id="Page-1" stroke="none" stroke-width="1" fill="none" fill-rule="evenodd">
        <g id="logo-vertical-copy">
            <path d="M35.9773528,179.812985 C35.9672891,176.796966 35.763795,174.948882 35.3633619,173.931402 C35.0239527,173.010013 34.3642176,172.236927 33.5012582,171.749364 C32.5166362,171.260391 31.4224309,171.024958 30.3205838,171.064998 C28.1263211,171.064998 26.3648717,172.19569 23.5163563,174.615768 L23.5163563,177.898743 L23.5163563,195.037657 L18.4836437,195.037657 L18.4836437,179.812985 C18.4836437,176.797806 18.27898,174.814135 17.8696527,173.861973 C17.5219922,172.969105 16.871071,172.222546 16.0276799,171.749364 C15.0588291,171.267514 13.9818538,171.035475 12.8973327,171.074916 C10.6124811,171.074916 8.87116256,172.364302 6.03271263,174.705033 L6.03271263,195.037657 L1,195.037657 L1,167.037659 L4.02778853,167.037659 L5.02617011,170.6881 C7.59174851,168.409738 10.9133459,167.132961 14.3668848,167.037659 C18.0608958,167.097657 20.7584298,168.089492 22.0568697,171.064998 C25.5395068,168.089492 28.6497232,167.097657 31.7901359,167.037659 C38.4131857,167.097657 41,170.50957 41,177.343315 L41,195.037657 L35.9672874,195.037657 L35.9773528,179.812985 Z M117,171.917659 L117,174.037659 L124,174.037659 L124,171.917659 L117,171.917659 Z M48,194.977659 L48,166.995056 L52.9999999,166.995056 L53,194.977659 L48,194.977659 Z M90.019082,162 L93.0203857,162 L94.6199998,166.851853 L100.994892,166.846871 L101.014892,170.97982 L94.6199999,170.984802 L94.6199999,188.002136 C94.6199999,191.008057 98.384893,190.755551 101.014893,190.755551 L101.014893,194.849609 C100.12591,195.013325 93.5251193,195.557308 91.1959876,192.551983 C90.3920801,191.514685 90,190.333779 90,188.002136 C90,185.670494 90,184.306946 90,183.02488 L90.019082,162 Z M60.0045049,189.21515 C60.0045049,189.21515 66.8445049,190.851317 69.9645049,190.851317 C73.0845049,190.851317 77.5845049,191.191317 77.5845049,186.191317 C77.5845049,179.191317 59.6745049,188.511317 60.0045049,174.581317 C60.1645049,167.921317 66.6345049,167.001317 70.6845049,167.001317 C74.2664484,166.946255 77.8447459,167.254498 81.3645049,167.921317 L81.3645049,172.521317 C81.3645049,172.521317 76.0045049,170.931317 72.9345049,170.931317 C69.8645049,170.931317 64.6545049,171.111317 64.6545049,174.591317 C64.6545049,178.071317 65.9745049,178.591317 71.2845049,178.591317 C76.5945049,178.591317 82.5645049,179.251317 82.5645049,186.591317 C82.5645049,193.591317 76.5645049,194.591317 71.6145049,194.881317 C67.6545049,195.091317 63.3245049,194.21515 60.0045049,193.52515 L60.0045049,189.21515 Z M124,195.036467 L117,195.036467 L117,167.036469 L124,167.036469 L124,195.036467 Z M128,181.010004 C128,176.653384 129.22,173.244578 131.66,170.783586 C134.11,168.329246 137.533645,167.037659 141.85,167.037659 C146.259903,167.037659 149.63,168.329246 152.06,170.783586 C154.49,173.237926 155.71,176.650058 155.71,181.019981 C155.71,185.389904 154.49,188.772105 152.06,191.226445 C149.63,193.680786 146.257645,195.037657 141.85,195.037657 C137.459731,195.037657 134.05,193.660832 131.62,191.216468 C129.213333,188.768779 128,185.366625 128,181.010004 Z M141.95,188.657659 C145.88,188.657659 148.23,186.577659 148.23,180.577659 C148.23,174.577659 145.23,173.157659 141.95,173.157659 C138.67,173.157659 135.93,174.457659 135.93,180.577659 C135.95,186.577659 138.02,188.657659 141.95,188.657659 Z M108.67,195.577659 C110.774205,195.577659 112.48,193.871864 112.48,191.767659 C112.48,189.663454 110.774205,187.957659 108.67,187.957659 C106.565795,187.957659 104.86,189.663454 104.86,191.767659 C104.881743,193.844591 106.593017,195.561418 108.67,195.577659 L108.67,195.577659 Z" id="Shape" fill="#171717"></path>
            <circle id="Oval" fill="#E9E9E9" cx="78.55" cy="74.3" r="74.3"></circle>
            <path d="M100.84,121.38 C57.78,117.88 78.91,115.47 16.84,102.69 C33.95,115.89 61.7,148.59 100.84,121.38 L100.84,121.38 L100.84,121.38 Z" id="Shape" fill="url(#linearGradient-1)"></path>
            <path d="M145.29,69.14 C104.35,61.06 64.29,33.14 22.23,42.14 C21.62,42.35 20.9,42.46 21.23,42.78 C48.03,47.44 104.47,87.73 145.29,69.14 L145.29,69.14 Z" id="Shape" fill="url(#linearGradient-2)"></path>
            <path d="M134.09,107.33 C112.55,102.73 65.4,66.81 12.55,81.24 C58.86,91.81 100.55,117.63 134.09,107.33 L134.09,107.33 Z" id="Shape" fill="url(#linearGradient-3)"></path>
            <path d="M141.17,47.99 C117.3,30.47 87.28,-1.33 59.87,27.92 C93.28,32.01 97.65,37.56 141.17,47.99 L141.17,47.99 Z" id="Shape" fill="#A4A4A4"></path>
            <path d="M16.39,102.56 C65.9,102.73 94.24,64.9 145.29,69.14 C104.47,90.07 54.55,129.56 16.39,102.56 L16.39,102.56 Z" id="Shape" fill="#121212"></path>
            <path d="M141.06,47.98 C91.15,44.06 65.15,84.31 12.16,81.4 C32.28,72.31 91.55,18.81 141.06,47.98 L141.06,47.98 Z" id="Shape" fill="#171717"></path>
            <path d="M104.47,21.73 C75.9,20.73 46.74,46.06 20.93,42.73 C39.55,31.52 74.09,3.06 104.47,21.73 L104.47,21.73 Z" id="Shape" fill="#212121"></path>
            <path d="M53.17,128.38 C82.9,128.31 107.74,102.14 134.71,107.33 C112.7,119.9 85.82,145.98 53.17,128.38 L53.17,128.38 Z" id="Shape" fill="#010101"></path>
        </g>
    </g>
</svg>