<?xml version="1.0" encoding="utf-8"?>
<!-- Generator: Adobe Illustrator 16.0.0, SVG Export Plug-In . SVG Version: 6.00 Build 0)  -->
<!DOCTYPE svg PUBLIC "-//W3C//DTD SVG 1.1//EN" "http://www.w3.org/Graphics/SVG/1.1/DTD/svg11.dtd">
<svg version="1.1" id="Layer_1" xmlns="http://www.w3.org/2000/svg" xmlns:xlink="http://www.w3.org/1999/xlink" x="0px" y="0px"
	 width="342px" height="158px" viewBox="0 0 342 158" enable-background="new 0 0 342 158" xml:space="preserve">
<circle id="Oval-135" fill="#E9E9E9" cx="76.5" cy="79.1" r="74.3">
</circle>
<linearGradient id="Rectangle-231-Copy-7_1_" gradientUnits="userSpaceOnUse" x1="-133.3115" y1="468.4131" x2="-135.0399" y2="470.0633" gradientTransform="matrix(126.5641 0 0 -45.0338 17100.2188 21275.9727)">
	<stop  offset="0" style="stop-color:#FFFFFF"/>
	<stop  offset="1" style="stop-color:#C2C1C1"/>
</linearGradient>
<path id="Rectangle-231-Copy-7" fill="url(#Rectangle-231-Copy-7_1_)" d="M98.8,126.2
	c-43.1-3.5-21.9-5.9-84-18.7C31.9,120.7,59.7,153.4,98.8,126.2L98.8,126.2z"/>
<linearGradient id="Rectangle-231-Copy-9_1_" gradientUnits="userSpaceOnUse" x1="-133.9321" y1="482.3154" x2="-135.3451" y2="480.8143" gradientTransform="matrix(185.318 0 0 50.7327 25099.5664 -24348.9219)">
	<stop  offset="0" style="stop-color:#FFFFFF"/>
	<stop  offset="1" style="stop-color:#A2A2A1"/>
</linearGradient>
<path id="Rectangle-231-Copy-9" fill="url(#Rectangle-231-Copy-9_1_)" d="M143.2,73.9
	c-40.9-8.1-81-36-123.1-27c-0.6,0.2-1.3,0.3-1,0.6C46,52.2,102.4,92.5,143.2,73.9z"/>
<linearGradient id="Rectangle-231-Copy-10_1_" gradientUnits="userSpaceOnUse" x1="-133.5225" y1="482.8047" x2="-135.254" y2="480.6027" gradientTransform="matrix(185.4238 0 0 49.7018 25099.1855 -23807.0938)">
	<stop  offset="0" style="stop-color:#FFFFFF"/>
	<stop  offset="1" style="stop-color:#B3B3B3"/>
</linearGradient>
<path id="Rectangle-231-Copy-10" fill="url(#Rectangle-231-Copy-10_1_)" d="M132,112.1
	C110.5,107.5,63.4,71.6,10.5,86C56.8,96.6,98.5,122.4,132,112.1z"/>
<path id="Rectangle-231-Copy-8" fill="#A4A4A4" d="M139.1,52.8C115.2,35.2,85.2,3.4,57.8,32.7
	C91.2,36.8,95.6,42.3,139.1,52.8z"/>
<path id="Rectangle-231-Copy-2" fill="#121212" d="M14.3,107.3c49.5,0.1,77.8-37.7,128.9-33.4
	C102.4,94.8,52.5,134.3,14.3,107.3z"/>
<path id="Rectangle-231-Copy-4" fill="#171717" d="M139,52.8C89.1,48.8,63.1,89.1,10.1,86.2
	C30.2,77.1,89.5,23.6,139,52.8z"/>
<path id="Rectangle-231-Copy-5" fill="#212121" d="M102.4,26.5c-28.6-1-57.7,24.4-83.5,21.1
	C37.5,36.3,72,7.8,102.4,26.5z"/>
<path id="Rectangle-231-Copy-6" fill="#010101" d="M51.1,133.2c29.7-0.1,54.6-26.2,81.5-21.1
	C110.6,124.7,83.8,150.7,51.1,133.2z"/>
<path fill="#010101" d="M290.5,90.8c0-2-1.6-3.6-3.6-3.6c-2,0-3.6,1.6-3.6,3.6c0,2,1.6,3.6,3.6,3.6
	C288.9,94.4,290.5,92.8,290.5,90.8z"/>
<path fill="#010101" d="M180,93.9V66.1h3.3l0.8,3.5c3.2-2.3,6.4-3.5,9.5-3.5c3.5,0,6,1.3,7.4,3.8c3.5-2.5,6.9-3.8,10-3.8
	c5.9,0,8.8,3.5,8.8,10.6v17.2h-4.9V76.4c0-4.1-1.7-6.2-5.2-6.2c-2.6,0-5.1,1.2-7.3,3.6v20.1h-4.9V76.5c0-4.2-1.7-6.3-5.2-6.3
	c-2.8,0-5.2,1.2-7.4,3.6v20.1L180,93.9L180,93.9z"/>
<path fill="#010101" d="M232.6,56.1v4h-4.9v-4H232.6z M232.6,66.1v27.8h-4.9V66.1H232.6z"/>
<path fill="#010101" d="M240.5,92.6v-4.2c3.1,1.1,6.3,1.6,9.6,1.6c4.4,0,6.6-1.3,6.6-4c0-2.5-1.5-3.7-4.4-3.7h-4.5
	c-5.8,0-8.7-2.7-8.7-8.2c0-5.3,3.9-7.9,11.6-7.9c3.3,0,6.5,0.4,9.6,1.3v4.2c-3.1-1.1-6.3-1.6-9.6-1.6c-4.6,0-6.9,1.3-6.9,4
	c0,2.5,1.4,3.7,4.1,3.7h4.5c6.2,0,9.3,2.7,9.3,8.2c0,5.3-3.8,7.9-11.5,7.9C246.8,93.9,243.6,93.4,240.5,92.6z"/>
<path fill="#010101" d="M268.3,61.6h3.1l1.1,4.5h6.5v4h-5.7V86c0,2.6,1.1,3.9,3.4,3.9h2.3v4h-3.6c-4.7,0-7-2.5-7-7.5V61.6
	L268.3,61.6z"/>
<rect x="295.5" y="66.5" fill="#010101" width="6.9" height="27.3"/>
<path fill="#010101" d="M307.2,80.1c0-9.3,4.6-13.9,13.8-13.9c9.2,0,13.8,4.6,13.8,13.9c0,9.2-4.6,13.9-13.8,13.9
	C311.8,94,307.3,89.4,307.2,80.1z M321,88.6c4.6,0,6.9-2.9,6.9-8.5c0-5.6-2.3-8.3-6.9-8.3c-4.6,0-6.9,2.8-6.9,8.3
	C314.1,85.7,316.4,88.6,321,88.6z"/>
</svg>
