<?xml version="1.0" encoding="UTF-8" standalone="no"?>
<svg width="333px" height="149px" viewBox="0 0 333 149" version="1.1" xmlns="http://www.w3.org/2000/svg" xmlns:xlink="http://www.w3.org/1999/xlink">
    <!-- Generator: Sketch 42 (36781) - http://www.bohemiancoding.com/sketch -->
    <title>logo-black-old</title>
    <desc>Created with Sketch.</desc>
    <defs>
        <linearGradient x1="254.43619%" y1="260.343201%" x2="-6.21714286%" y2="5.88444122%" id="linearGradient-1">
            <stop stop-color="#FFFFFF" offset="0%"></stop>
            <stop stop-color="#C2C1C1" offset="100%"></stop>
        </linearGradient>
        <linearGradient x1="209.810781%" y1="218.615651%" x2="-0.673254563%" y2="-7.71089038%" id="linearGradient-2">
            <stop stop-color="#FFFFFF" offset="0%"></stop>
            <stop stop-color="#A2A2A1" offset="100%"></stop>
        </linearGradient>
        <linearGradient x1="272.776488%" y1="330.890369%" x2="8.69762081%" y2="-12.1219126%" id="linearGradient-3">
            <stop stop-color="#FFFFFF" offset="0%"></stop>
            <stop stop-color="#B3B3B3" offset="100%"></stop>
        </linearGradient>
    </defs>
    <g id="Page-1" stroke="none" stroke-width="1" fill="none" fill-rule="evenodd">
        <g id="logo-black">
            <path d="M212.977353,73.8129849 C212.967289,70.7969659 212.763795,68.948882 212.363362,67.9314018 C212.023953,67.0100135 211.364218,66.2369272 210.501258,65.7493642 C209.516636,65.2603913 208.422431,65.0249578 207.320584,65.0649979 C205.126321,65.0649979 203.364872,66.1956901 200.516356,68.6157681 L200.516356,71.8987428 L200.516356,89.0376568 L195.483644,89.0376568 L195.483644,73.8129849 C195.483644,70.7978057 195.27898,68.8141352 194.869653,67.8619733 C194.521992,66.9691054 193.871071,66.222546 193.02768,65.7493642 C192.058829,65.2675141 190.981854,65.0354747 189.897333,65.0749162 C187.612481,65.0749162 185.871163,66.3643021 183.032713,68.7050333 L183.032713,89.0376568 L178,89.0376568 L178,61.0376587 L181.027789,61.0376587 L182.02617,64.6881004 C184.591749,62.4097382 187.913346,61.1329613 191.366885,61.0376587 C195.060896,61.0976568 197.75843,62.0894921 199.05687,65.0649979 C202.539507,62.0894921 205.649723,61.0976568 208.790136,61.0376587 C215.413186,61.0976568 218,64.5095701 218,71.3433151 L218,89.0376568 L212.967287,89.0376568 L212.977353,73.8129849 Z M294,65.9176587 L294,68.0376587 L301,68.0376587 L301,65.9176587 L294,65.9176587 Z M225,88.9776587 L225,60.9950562 L230,60.9950562 L230,88.9776587 L225,88.9776587 Z M267.019082,56 L270.020386,56 L271.62,60.8518527 L277.994892,60.8468707 L278.014892,64.9798203 L271.62,64.9848022 L271.62,82.0021362 C271.62,85.0080566 275.384893,84.7555513 278.014893,84.7555513 L278.014893,88.8496094 C277.12591,89.0133254 270.525119,89.5573082 268.195988,86.5519829 C267.39208,85.514685 267,84.3337787 267,82.0021362 C267,79.6704938 267,78.3069456 267,77.0248798 L267.019082,56 Z M237.004505,83.2151503 C237.004505,83.2151503 243.844505,84.851317 246.964505,84.851317 C250.084505,84.851317 254.584505,85.191317 254.584505,80.191317 C254.584505,73.191317 236.674505,82.511317 237.004505,68.581317 C237.164505,61.921317 243.634505,61.001317 247.684505,61.001317 C251.266448,60.9462552 254.844746,61.2544981 258.364505,61.921317 L258.364505,66.521317 C258.364505,66.521317 253.004505,64.931317 249.934505,64.931317 C246.864505,64.931317 241.654505,65.111317 241.654505,68.591317 C241.654505,72.071317 242.974505,72.591317 248.284505,72.591317 C253.594505,72.591317 259.564505,73.251317 259.564505,80.591317 C259.564505,87.591317 253.564505,88.591317 248.614505,88.881317 C244.654505,89.091317 240.324505,88.2151503 237.004505,87.5251503 L237.004505,83.2151503 Z M301,89.0364673 L294,89.0364673 L294,61.0364692 L301,61.0364692 L301,89.0364673 Z M305,75.0100042 C305,70.6533838 306.22,67.2445778 308.66,64.7835861 C311.11,62.3292458 314.533645,61.0376587 318.85,61.0376587 C323.259903,61.0376587 326.63,62.3292458 329.06,64.7835861 C331.49,67.2379265 332.71,70.6500582 332.71,75.0199812 C332.71,79.3899043 331.49,82.772105 329.06,85.2264453 C326.63,87.6807857 323.257645,89.0376566 318.85,89.0376568 C314.459731,89.0376566 311.05,87.6608317 308.62,85.2164684 C306.213333,82.7687793 305,79.3666246 305,75.0100042 Z M318.95,82.6576587 C322.88,82.6576587 325.23,80.5776587 325.23,74.5776587 C325.23,68.5776587 322.23,67.1576587 318.95,67.1576587 C315.67,67.1576587 312.93,68.4576587 312.93,74.5776587 C312.95,80.5776587 315.02,82.6576587 318.95,82.6576587 Z M285.67,89.5776587 C287.774205,89.5776587 289.48,87.8718636 289.48,85.7676587 C289.48,83.6634538 287.774205,81.9576587 285.67,81.9576587 C283.565795,81.9576587 281.86,83.6634538 281.86,85.7676587 C281.881743,87.8445909 283.593017,89.5614177 285.67,89.5776586 L285.67,89.5776587 Z" id="Shape" fill="#FFFFFF"></path>
            <circle id="Oval" fill="#E9E9E9" cx="74.3" cy="74.3" r="74.3"></circle>
            <path d="M96.58,121.38 C53.52,117.88 74.65,115.47 12.58,102.69 C29.69,115.89 57.44,148.59 96.58,121.38 L96.58,121.38 Z" id="Shape" fill="url(#linearGradient-1)"></path>
            <path d="M141.03,69.14 C100.09,61.06 60.03,33.14 17.97,42.14 C17.36,42.35 16.64,42.46 16.97,42.78 C43.8,47.44 100.22,87.69 141.03,69.14 Z" id="Shape" fill="url(#linearGradient-2)"></path>
            <path d="M129.8,107.33 C108.28,102.69 61.15,66.81 8.33,81.23 C54.6,91.81 96.27,117.63 129.8,107.33 Z" id="Shape" fill="url(#linearGradient-3)"></path>
            <path d="M136.92,47.99 C113.05,30.47 83.03,-1.33 55.61,27.92 C89.03,32.01 93.4,37.56 136.92,47.99 Z" id="Shape" fill="#A4A4A4"></path>
            <path d="M12.14,102.56 C61.66,102.69 89.99,64.9 141.04,69.14 C100.22,90.07 50.28,129.56 12.14,102.56 Z" id="Shape" fill="#121212"></path>
            <path d="M136.8,47.98 C86.9,44.06 60.9,84.31 7.91,81.4 C28.03,72.31 87.28,18.81 136.8,47.98 Z" id="Shape" fill="#171717"></path>
            <path d="M100.22,21.69 C71.65,20.69 42.49,46.06 16.68,42.75 C35.28,31.52 69.8,3.06 100.22,21.69 Z" id="Shape" fill="#212121"></path>
            <path d="M48.92,128.38 C78.65,128.31 103.49,102.14 130.46,107.33 C108.45,119.9 81.57,145.98 48.92,128.38 Z" id="Shape" fill="#010101"></path>
        </g>
    </g>
</svg>