<?xml version="1.0" encoding="UTF-8"?>
<svg width="135px" height="53px" viewBox="0 0 135 53" version="1.1" xmlns="http://www.w3.org/2000/svg" xmlns:xlink="http://www.w3.org/1999/xlink">
    <!-- Generator: Sketch 55.2 (78181) - https://sketchapp.com -->
    <title>Slice 1</title>
    <desc>Created with Sketch.</desc>
    <defs>
        <linearGradient x1="74.7022309%" y1="260.343201%" x2="43.207226%" y2="5.88444122%" id="linearGradient-1">
            <stop stop-color="#FFFFFF" offset="0%"></stop>
            <stop stop-color="#C2C1C1" offset="100%"></stop>
        </linearGradient>
        <linearGradient x1="61.7220308%" y1="218.615651%" x2="46.2831453%" y2="-7.71089038%" id="linearGradient-2">
            <stop stop-color="#FFFFFF" offset="0%"></stop>
            <stop stop-color="#A2A2A1" offset="100%"></stop>
        </linearGradient>
        <linearGradient x1="65.34158%" y1="330.890369%" x2="47.1556974%" y2="-12.1219126%" id="linearGradient-3">
            <stop stop-color="#FFFFFF" offset="0%"></stop>
            <stop stop-color="#B3B3B3" offset="100%"></stop>
        </linearGradient>
    </defs>
    <g id="Page-1" stroke="none" stroke-width="1" fill="none" fill-rule="evenodd">
        <g id="logo" fill-rule="nonzero">
            <path d="M77.5111089,27.4086447 C77.5063582,25.9849287 77.4102985,25.112538 77.2212736,24.6322351 C77.0610552,24.1972924 76.7496263,23.8323559 76.3422648,23.6022011 C75.8774726,23.3713808 75.3609516,23.2602441 74.8408231,23.279145 C73.8050183,23.279145 72.9735237,23.81289 71.6288778,24.9552912 L71.6288778,26.505024 L71.6288778,34.5954725 L69.253179,34.5954725 L69.253179,27.4086447 C69.253179,25.9853251 69.156567,25.0489306 68.9633436,24.5994612 C68.7992297,24.1779817 68.4919616,23.8255672 68.0938376,23.6022011 C67.6364902,23.3747431 67.1281026,23.2652086 66.6161529,23.283827 C65.5375853,23.283827 64.7155937,23.8924834 63.3756993,24.9974289 L63.3756993,34.5954725 L61,34.5954725 L61,21.3780339 L62.4292721,21.3780339 L62.9005593,23.10123 C64.1116444,22.025726 65.6796091,21.4230216 67.309857,21.3780339 C69.0536201,21.4063561 70.3269948,21.8745533 70.9399252,23.279145 C72.583909,21.8745533 74.0520908,21.4063561 75.5345273,21.3780339 C78.6609474,21.4063561 79.8820566,23.0169545 79.8820566,26.2428336 L79.8820566,34.5954725 L77.5063573,34.5954725 L77.5111089,27.4086447 Z M115.757964,23.6816448 L115.757964,24.6823937 L119.062324,24.6823937 L119.062324,23.6816448 L115.757964,23.6816448 Z M83.1864164,34.5671503 L83.1864164,21.3579233 L85.5466735,21.3579233 L85.5466735,34.5671503 L83.1864164,34.5671503 Z M103.021583,19 L104.438353,19 L105.193453,21.2903239 L108.20273,21.2879722 L108.212172,23.2389369 L105.193453,23.2412885 L105.193453,31.2743451 C105.193453,32.6932941 106.970676,32.5740986 108.212172,32.5740986 L108.212172,34.5067045 C107.792526,34.5839868 104.676613,34.8407748 103.577144,33.4221066 C103.197658,32.9324487 103.012576,32.3750003 103.012576,31.2743451 L103.012576,28.9248242 L103.021583,19 Z M88.85316,31.8469501 C88.85316,31.8469501 92.0819916,32.6193049 93.5547921,32.6193049 C95.0275924,32.6193049 97.1518239,32.7798024 97.1518239,30.4195454 C97.1518239,27.1151854 88.697383,31.5147046 88.85316,24.9390285 C88.9286882,21.7951661 91.9828608,21.3608787 93.894669,21.3608787 C95.5855303,21.3348867 97.2746709,21.4803932 98.9361781,21.7951661 L98.9361781,23.9666026 C98.9361781,23.9666026 96.4059825,23.2160408 94.9567847,23.2160408 C93.5075869,23.2160408 91.048199,23.30101 91.048199,24.943749 C91.048199,26.5864878 91.6713069,26.8319546 94.1779,26.8319546 C96.6844929,26.8319546 99.5026399,27.1435086 99.5026399,30.6083659 C99.5026399,33.9127259 96.6703314,34.3847773 94.3336769,34.5216721 C92.4643533,34.6208029 90.4203707,34.2072072 88.85316,33.8814918 L88.85316,31.8469501 Z M119.062324,34.594911 L115.757964,34.594911 L115.757964,21.3774723 L119.062324,21.3774723 L119.062324,34.594911 Z M120.95053,27.9736993 C120.95053,25.9171504 121.526433,24.3080188 122.678238,23.1463042 C123.834764,21.9877295 125.4509,21.3780339 127.488442,21.3780339 C129.570142,21.3780339 131.161002,21.9877295 132.308087,23.1463042 C133.455171,24.304879 134.031074,25.9155806 134.031074,27.978409 C134.031074,30.0412373 133.455171,31.63781 132.308087,32.7963848 C131.161002,33.9549596 129.569077,34.5954725 127.488442,34.5954725 C125.416009,34.5954725 123.80644,33.9455404 122.659356,32.7916752 C121.523285,31.63624 120.95053,30.0302481 120.95053,27.9736993 Z M127.535646,31.5837854 C129.390809,31.5837854 130.50013,30.6019186 130.50013,27.7696101 C130.50013,24.9373016 129.083976,24.2669885 127.535646,24.2669885 C125.987318,24.2669885 124.693897,24.8806554 124.693897,27.7696101 C124.703338,30.6019186 125.680485,31.5837854 127.535646,31.5837854 Z M113.624292,33.0518653 C113.624292,32.0585725 112.819069,31.2533494 111.825776,31.2533494 C110.832482,31.2533494 110.02726,32.0585725 110.02726,33.0518653 C110.037523,34.0322841 110.845332,34.8427146 111.825776,34.8503812 C112.819069,34.8503812 113.624292,34.0451582 113.624292,33.0518653 Z" id="Shape" fill="#171717"></path>
            <g id="Group">
                <circle id="Oval" fill="#E9E9E9" cx="26.4288591" cy="26.4288591" r="26.4288591"></circle>
                <path d="M34.3539597,43.1754362 C19.0373154,41.9304698 26.5533557,41.0732215 4.4747651,36.5273154 C10.5608725,41.2226174 20.4316779,52.8541611 34.3539597,43.1754362 L34.3539597,43.1754362 Z" id="Shape" fill="url(#linearGradient-1)"></path>
                <path d="M50.1650336,24.5934228 C35.6024832,21.7193289 21.352953,11.7880537 6.39201342,14.989396 C6.17503356,15.064094 5.91892617,15.1032215 6.03630872,15.217047 C15.5798658,16.8746309 35.6487248,31.191745 50.1650336,24.5934228 Z" id="Shape" fill="url(#linearGradient-2)"></path>
                <path d="M46.1704698,38.1777852 C38.5157047,36.5273154 21.7513423,23.7646309 2.96302013,28.8938926 C19.4214765,32.6572483 34.2436913,41.8415436 46.1704698,38.1777852 Z" id="Shape" fill="url(#linearGradient-3)"></path>
                <path d="M48.7030872,17.0702685 C40.2124161,10.8383221 29.5341611,-0.473087248 19.7807383,9.93127517 C31.6683893,11.3861074 33.2228188,13.3602685 48.7030872,17.0702685 Z" id="Shape" fill="#A4A4A4"></path>
                <path d="M4.31825503,36.4810738 C21.9327517,36.5273154 32.0098658,23.0852349 50.1685906,24.5934228 C35.6487248,32.0383221 17.8848322,46.0851007 4.31825503,36.4810738 Z" id="Shape" fill="#121212"></path>
                <path d="M48.6604027,17.0667114 C30.9107383,15.672349 21.6624161,29.9894631 2.81362416,28.9543624 C9.97040268,25.7210067 31.045906,6.69080537 48.6604027,17.0667114 Z" id="Shape" fill="#171717"></path>
                <path d="M35.6487248,7.7152349 C25.4862416,7.3595302 15.1138926,16.3837584 5.93315436,15.2063758 C12.5492617,11.2118121 24.8281879,1.08845638 35.6487248,7.7152349 Z" id="Shape" fill="#212121"></path>
                <path d="M17.4010738,45.6653691 C27.9761745,45.6404698 36.8118792,36.3316779 46.4052349,38.1777852 C38.5761745,42.6489933 29.0148322,51.9257718 17.4010738,45.6653691 Z" id="Shape" fill="#010101"></path>
            </g>
        </g>
    </g>
</svg>